<svg xmlns="http://www.w3.org/2000/svg" xmlns:xlink="http://www.w3.org/1999/xlink" id="Capa_1" x="0" y="0" version="1.1" viewBox="0 0 512 512" xml:space="preserve" style="enable-background:new 0 0 512 512"><g><rect style="fill:#e8eaea" width="113.067" height="345.6" y="166.4"/><rect style="fill:#e8eaea" width="113.067" height="345.6" x="398.933" y="166.4"/></g><path style="fill:#ff7058" d="M0,172.8L0,172.8h512l0,0c0-12.8-10.667-23.467-23.467-23.467H23.467C10.667,149.333,0,160,0,172.8z"/><rect style="fill:#f2f2f2" width="285.867" height="403.2" x="113.067" y="108.8"/><path style="fill:#ff7058" d="M414.933,85.333H97.067c-6.4,0-11.733,5.333-11.733,11.733S90.667,108.8,97.067,108.8h317.867	c6.4,0,11.733-5.333,11.733-11.733S421.333,85.333,414.933,85.333z"/><g><rect style="fill:#54c0eb" width="49.067" height="54.4" x="32" y="198.4"/><rect style="fill:#54c0eb" width="49.067" height="54.4" x="32" y="274.133"/><rect style="fill:#54c0eb" width="49.067" height="54.4" x="32" y="349.867"/><rect style="fill:#54c0eb" width="49.067" height="54.4" x="32" y="425.6"/><rect style="fill:#54c0eb" width="49.067" height="54.4" x="430.933" y="198.4"/><rect style="fill:#54c0eb" width="49.067" height="54.4" x="430.933" y="274.133"/><rect style="fill:#54c0eb" width="49.067" height="54.4" x="430.933" y="349.867"/><rect style="fill:#54c0eb" width="49.067" height="54.4" x="430.933" y="425.6"/></g><rect style="fill:#84dbff" width="53.333" height="54.4" x="145.067" y="293.333"/><rect style="fill:#40596b" width="114.133" height="133.333" x="198.4" y="378.667"/><rect style="fill:#acb3ba" width="512" height="22.4" y="489.6"/><g><rect style="fill:#84dbff" width="53.333" height="54.4" x="145.067" y="141.867"/><rect style="fill:#84dbff" width="53.333" height="54.4" x="145.067" y="217.6"/><rect style="fill:#84dbff" width="53.333" height="54.4" x="229.333" y="141.867"/><rect style="fill:#84dbff" width="53.333" height="54.4" x="229.333" y="217.6"/><rect style="fill:#84dbff" width="53.333" height="54.4" x="229.333" y="293.333"/><rect style="fill:#84dbff" width="53.333" height="54.4" x="313.6" y="141.867"/><rect style="fill:#84dbff" width="53.333" height="54.4" x="313.6" y="217.6"/><rect style="fill:#84dbff" width="53.333" height="54.4" x="313.6" y="293.333"/></g><g><path style="fill:#40596b" d="M147.2,1.067h13.867V64H147.2V39.467h-25.6V64h-13.867V1.067H121.6v26.667h25.6L147.2,1.067 L147.2,1.067z"/><path style="fill:#40596b" d="M229.333,55.467c-6.4,6.4-13.867,9.6-23.467,9.6s-17.067-3.2-23.467-9.6 c-6.4-6.4-9.6-13.867-9.6-23.467s3.2-17.067,9.6-23.467C188.8,3.2,196.267,0,205.867,0c9.6,0,17.067,3.2,23.467,9.6 c6.4,6.4,9.6,13.867,9.6,23.467C238.933,41.6,235.733,50.133,229.333,55.467z M225.067,33.067c0-5.333-2.133-10.667-5.333-14.933 c-3.2-4.267-8.533-6.4-13.867-6.4s-9.6,2.133-13.867,6.4c-3.2,4.267-5.333,8.533-5.333,14.933S188.8,43.733,192,46.933 c4.267,4.267,8.533,6.4,13.867,6.4c5.333,0,9.6-2.133,13.867-6.4S225.067,38.4,225.067,33.067z"/><path style="fill:#40596b" d="M276.267,13.867v51.2H262.4v-51.2h-18.133v-12.8H294.4V12.8h-18.133V13.867z"/><path style="fill:#40596b" d="M349.867,1.067v12.8h-32v12.8h28.8V38.4h-28.8v12.8h32V64h-46.933V1.067H349.867z"/><path style="fill:#40596b" d="M363.733,65.067v-64H377.6V51.2h26.667V64h-40.533V65.067z"/></g></svg>